# xmcd CD database file
#
# Track frame offsets:
#	150
#	17567
#	42390
#	71865
#	88602
#	105825
#	119270
#	136830
#	153112
#	166360
#	183922
#	208330
#	233247
#	248535
#
# Disc length: 3504 seconds
#
# Revision: 0
# Processed by: cddbd v1.5PL3 Copyright (c) Steve Scherf et al.
# Submitted via: CDex 1.50Beta7
#
DISCID=b00dae0e
DTITLE=Glen Scott - Without Vertigo
DYEAR=1999
DGENRE=Soul
TTITLE0=Heaven
TTITLE1=Without Vertigo
TTITLE2=My Wolrd
TTITLE3=Wet Supermodel
TTITLE4=Valentine Malloy
TTITLE5=A Piece Of My Heart
TTITLE6=Easy
TTITLE7=It'S Alright
TTITLE8=Delusions Of Grandeur
TTITLE9=Cold Flame
TTITLE10=The Way I Feel
TTITLE11=My Protection
TTITLE12=Superstar
TTITLE13=Saints Are On The Sidewalks (Bonus Track)
EXTD=YEAR: 1999
EXTT0=
EXTT1=
EXTT2=
EXTT3=
EXTT4=
EXTT5=
EXTT6=
EXTT7=
EXTT8=
EXTT9=
EXTT10=
EXTT11=
EXTT12=
EXTT13=
PLAYORDER=
